<svg width="180" height="180" viewBox="0 0 180 180" fill="none" xmlns="http://www.w3.org/2000/svg">
<rect width="180" height="180" rx="90" fill="#006E6E"/>
<g clip-path="url(#clip0)">
<path d="M135.166 68.5391C134.704 67.5653 133.539 67.1509 132.565 67.6134C131.591 68.0761 131.177 69.2407 131.639 70.2149C137.664 82.898 137.526 97.9714 131.27 110.537C130.789 111.502 131.182 112.674 132.148 113.155C132.427 113.294 132.724 113.36 133.016 113.36C133.734 113.36 134.424 112.963 134.766 112.278C138.115 105.55 139.922 97.9999 139.989 90.445C140.057 82.897 138.389 75.3222 135.166 68.5391Z" fill="#FFCB65"/>
<path d="M47.9369 66.6841C46.9738 66.2002 45.8002 66.5886 45.3156 67.5523C41.9265 74.2978 40.0925 81.874 40.0121 89.4623C39.9316 97.0416 41.6 104.648 44.8369 111.459C45.1711 112.163 45.8714 112.574 46.6017 112.574C46.8826 112.574 47.1677 112.513 47.4384 112.384C48.4123 111.922 48.8267 110.757 48.3638 109.783C42.3078 97.0395 42.4728 81.9078 48.805 69.3052C49.289 68.342 48.9006 67.1683 47.9369 66.6841Z" fill="#FFCB65"/>
<path d="M71.6702 45.5291C71.2165 44.551 70.0561 44.1258 69.0774 44.5795L69.0298 44.6016C68.0516 45.0553 67.6263 46.2162 68.0804 47.1946C68.4106 47.9071 69.1159 48.326 69.8528 48.326C70.1278 48.326 70.4073 48.2676 70.6731 48.1442L70.7208 48.1221C71.6987 47.6682 72.1241 46.5073 71.6702 45.5291Z" fill="#FFCB65"/>
<path d="M111.412 44.8083C100.523 39.6493 88.1171 38.6021 76.48 41.8593C75.4417 42.1501 74.8355 43.2275 75.1259 44.2659C75.4163 45.3044 76.4946 45.9105 77.5325 45.6199C88.2634 42.6163 99.7015 43.5814 109.74 48.3374C110.01 48.4654 110.294 48.5259 110.574 48.5259C111.305 48.5259 112.006 48.1134 112.34 47.4089C112.802 46.4343 112.386 45.27 111.412 44.8083Z" fill="#FFCB65"/>
<path d="M111.934 132.809C111.489 131.827 110.331 131.392 109.349 131.837L109.325 131.848C108.343 132.294 107.908 133.451 108.353 134.433C108.68 135.153 109.39 135.58 110.132 135.58C110.402 135.58 110.676 135.523 110.938 135.405C110.939 135.404 110.961 135.394 110.962 135.393C111.944 134.948 112.379 133.791 111.934 132.809Z" fill="#FFCB65"/>
<path d="M105.654 135.466C105.345 134.433 104.258 133.845 103.224 134.153C92.1508 137.459 80.3373 136.521 69.9611 131.511C68.9902 131.043 67.8228 131.45 67.3537 132.421C66.8851 133.392 67.2922 134.559 68.2631 135.028C75.1008 138.329 82.5121 140 89.9697 140C94.7885 140 99.6268 139.302 104.341 137.895C105.374 137.587 105.962 136.499 105.654 135.466Z" fill="#FFCB65"/>
<path d="M90 58.3655C72.5589 58.3655 58.3696 72.5548 58.3696 89.9959C58.3696 107.437 72.5589 121.626 90 121.626C107.441 121.626 121.63 107.437 121.63 89.9959C121.63 72.5548 107.441 58.3655 90 58.3655ZM75.2288 66.5435C74.1267 68.2915 73.3255 70.2476 72.9003 72.3386C71.7753 72.0913 70.689 71.7017 69.6616 71.1749C71.3046 69.4007 73.1759 67.8409 75.2288 66.5435ZM67.18 74.2691C68.8546 75.2277 70.6634 75.8966 72.5507 76.2542V88.0433H62.3442C62.7003 82.9531 64.4364 78.2378 67.18 74.2691ZM67.0882 105.59C64.3974 101.649 62.6962 96.982 62.3444 91.9484H72.5507V103.111C70.6052 103.593 68.7605 104.427 67.0882 105.59ZM69.5155 108.66C70.5374 107.977 71.6404 107.453 72.7972 107.094C73.1872 109.396 74.0294 111.546 75.229 113.448C73.1152 112.112 71.1931 110.5 69.5155 108.66ZM88.0474 117.571C82.2744 116.734 77.672 112.242 76.6648 106.525H88.0474V117.571ZM88.0474 102.62H76.5722C76.5331 102.62 76.4945 102.622 76.4554 102.622V91.9484H88.0474V102.62ZM88.0474 88.0433H76.4554V76.5617H88.0474V88.0433ZM88.0474 72.6568H76.8328C78.1138 67.329 82.5496 63.2181 88.0474 62.4204V72.6568ZM112.82 74.2693C115.563 78.2378 117.3 82.9531 117.656 88.0433H107.449V76.2544C109.337 75.8968 111.146 75.2281 112.82 74.2693ZM110.339 71.1751C109.312 71.7019 108.225 72.0915 107.1 72.3388C106.674 70.2478 105.873 68.2917 104.771 66.5435C106.824 67.8411 108.696 69.4009 110.339 71.1751ZM91.9523 62.4206C97.45 63.2181 101.886 67.3292 103.167 72.657H91.9523V62.4206ZM91.9523 117.571V106.525H103.335C102.328 112.242 97.7256 116.734 91.9523 117.571ZM103.544 102.622C103.505 102.622 103.466 102.62 103.427 102.62H91.9523V91.9484H103.544V102.622ZM103.544 88.0433H91.9523V76.5617H103.544V88.0433ZM104.771 113.448C105.971 111.545 106.813 109.396 107.203 107.095C108.359 107.453 109.462 107.978 110.484 108.66C108.806 110.5 106.885 112.112 104.771 113.448ZM112.912 105.591C111.239 104.428 109.395 103.593 107.449 103.111V91.9484H117.655C117.304 96.982 115.603 101.65 112.912 105.591Z" fill="#FFCB65"/>
<path d="M56.0317 45.4841C50.2182 45.4841 45.4883 50.2138 45.4883 56.0275C45.4883 61.8412 50.218 66.5709 56.0317 66.5709C61.8452 66.5709 66.575 61.8412 66.575 56.0275C66.575 50.2138 61.8452 45.4841 56.0317 45.4841ZM56.0317 62.666C52.3711 62.666 49.3932 59.6881 49.3932 56.0275C49.3932 52.3669 52.3711 49.389 56.0317 49.389C59.6922 49.389 62.6702 52.3669 62.6702 56.0275C62.6702 59.6881 59.6922 62.666 56.0317 62.666Z" fill="#FFCB65"/>
<path d="M56.0317 113.421C50.2182 113.421 45.4883 118.151 45.4883 123.964C45.4883 129.778 50.2182 134.508 56.0317 134.508C61.8452 134.508 66.575 129.778 66.575 123.964C66.575 118.151 61.8452 113.421 56.0317 113.421ZM56.0317 130.603C52.3711 130.603 49.3932 127.625 49.3932 123.964C49.3932 120.304 52.3711 117.326 56.0317 117.326C59.6922 117.326 62.6702 120.304 62.6702 123.964C62.6702 127.625 59.6922 130.603 56.0317 130.603Z" fill="#FFCB65"/>
<path d="M123.968 113.421C118.155 113.421 113.425 118.151 113.425 123.964C113.425 129.778 118.155 134.508 123.968 134.508C129.782 134.508 134.512 129.778 134.512 123.964C134.512 118.151 129.782 113.421 123.968 113.421ZM123.968 130.603C120.308 130.603 117.33 127.625 117.33 123.964C117.33 120.304 120.308 117.326 123.968 117.326C127.629 117.326 130.607 120.304 130.607 123.964C130.607 127.625 127.629 130.603 123.968 130.603Z" fill="#FFCB65"/>
<path d="M123.968 45.4841C118.155 45.4841 113.425 50.2138 113.425 56.0275C113.425 61.8412 118.155 66.5709 123.968 66.5709C129.782 66.5709 134.512 61.8412 134.512 56.0275C134.512 50.2138 129.782 45.4841 123.968 45.4841ZM123.968 62.666C120.308 62.666 117.33 59.6881 117.33 56.0275C117.33 52.3669 120.308 49.389 123.968 49.389C127.629 49.389 130.607 52.3669 130.607 56.0275C130.607 59.6881 127.629 62.666 123.968 62.666Z" fill="#FFCB65"/>
</g>
<defs>
<clipPath id="clip0">
<rect width="100" height="100" fill="white" transform="translate(40 40)"/>
</clipPath>
</defs>
</svg>
