<svg width="180" height="180" viewBox="0 0 180 180" fill="none" xmlns="http://www.w3.org/2000/svg">
<rect width="180" height="180" rx="90" fill="#006E6E"/>
<g clip-path="url(#clip0)">
<path d="M139.916 107.135L134.893 90.568C134.818 83.0178 131.866 75.9092 126.56 70.5225C121.192 65.0721 114.026 62.0023 106.384 61.8787C100.47 61.7875 94.8128 63.4186 89.99 66.5496C85.2544 63.4848 79.8019 61.875 74.1066 61.875C73.9437 61.875 73.7796 61.8764 73.6165 61.8789C65.9736 62.0025 58.8081 65.0723 53.4398 70.5227C48.1343 75.9094 45.182 83.018 45.1071 90.5684L40.0841 107.135C39.9046 107.727 40.0159 108.368 40.3845 108.865C40.7529 109.362 41.3347 109.654 41.953 109.654H47.6808C47.9068 109.654 48.0907 109.838 48.0907 110.064V118.201C48.0907 123.515 52.4142 127.838 57.7282 127.838H62.3919C63.5306 127.838 64.457 128.765 64.457 129.904V138.047C64.457 139.125 65.3316 140 66.4101 140H113.59C114.668 140 115.543 139.125 115.543 138.047V129.904C115.543 128.765 116.469 127.838 117.608 127.838H122.272C127.586 127.838 131.909 123.515 131.909 118.201V110.064C131.909 109.838 132.093 109.654 132.319 109.654H138.047C138.665 109.654 139.247 109.362 139.616 108.865C139.984 108.368 140.095 107.726 139.916 107.135ZM88.0224 136.094H84.1161V130.234C84.1161 129.156 83.2415 128.281 82.163 128.281C81.0845 128.281 80.2099 129.156 80.2099 130.234V136.094H68.3634V129.904C68.3634 126.611 65.6847 123.932 62.3919 123.932H57.7284C54.5681 123.932 51.9972 121.361 51.9972 118.201V110.064C51.9972 107.684 50.0611 105.748 47.681 105.748H44.5862L48.9279 91.4291C48.9837 91.2455 49.012 91.0545 49.012 90.8625C49.012 77.2541 60.0779 66.0045 73.6796 65.7848C78.2862 65.7139 82.7155 66.8494 86.6423 69.0859C86.2171 69.4588 85.7999 69.8436 85.3935 70.2436C79.9316 75.618 76.9237 82.7734 76.9237 90.3922C76.9237 97.5334 79.3609 104.503 84.1673 111.108C86.6894 114.573 88.0224 118.625 88.0224 122.826V136.094ZM82.971 80.4014L88.0716 85.502V94.9283L80.9648 87.8215C81.2361 85.2355 81.9146 82.7375 82.971 80.4014ZM88.0718 109.902C87.8323 109.533 87.5863 109.167 87.3255 108.809C83.6978 103.824 81.5757 98.6453 80.9943 93.3754L88.0718 100.453V109.902ZM88.0718 79.9777L84.9501 76.8561C85.8525 75.5164 86.8954 74.2551 88.0718 73.0896V79.9777ZM91.978 73.142C93.1245 74.2854 94.1548 75.5357 95.0532 76.8719L91.978 79.9471V73.142ZM91.978 85.4717L97.0316 80.4182C98.1015 82.7836 98.773 85.2721 99.0386 87.8475L91.978 94.9082V85.4717ZM91.978 100.433L99.0019 93.4086C98.4154 98.667 96.2948 103.835 92.6749 108.809C92.4322 109.143 92.2023 109.482 91.978 109.825V100.433ZM132.319 105.748V105.748C129.939 105.748 128.003 107.684 128.003 110.064V118.201C128.003 121.361 125.432 123.932 122.272 123.932H117.608C114.316 123.932 111.637 126.611 111.637 129.904V136.094H91.978V122.826C91.978 118.625 93.3111 114.573 95.8333 111.107C100.64 104.503 103.077 97.5332 103.077 90.392C103.077 86.1332 102.151 82.0424 100.324 78.2326C98.6577 74.7568 96.2714 71.6348 93.3466 69.0775C97.2402 66.8562 101.684 65.7084 106.321 65.7846C119.922 66.0043 130.988 77.2541 130.988 90.8623C130.988 91.0543 131.017 91.2453 131.072 91.4289L135.414 105.748H132.319Z" fill="#FFCB65"/>
<path d="M90.0005 40C88.922 40 88.0474 40.8746 88.0474 41.9531V51.9199C88.0474 52.9986 88.922 53.873 90.0005 53.873C91.079 53.873 91.9536 52.9984 91.9536 51.9199V41.9531C91.9536 40.8746 91.079 40 90.0005 40Z" fill="#FFCB65"/>
<path d="M91.3812 57.5625C91.0181 57.1973 90.5142 56.9883 90.0005 56.9883C89.4868 56.9883 88.9829 57.1973 88.6196 57.5625C88.2563 57.9238 88.0474 58.4277 88.0474 58.9434C88.0474 59.457 88.2562 59.9588 88.6196 60.324C88.9829 60.6875 89.4868 60.8944 90.0005 60.8944C90.5142 60.8944 91.0181 60.6873 91.3812 60.324C91.7444 59.9588 91.9536 59.457 91.9536 58.9434C91.9536 58.4276 91.7446 57.9236 91.3812 57.5625Z" fill="#FFCB65"/>
<path d="M80.7017 54.3853L74.9824 48.6693C74.2193 47.907 72.983 47.9076 72.2201 48.6701C71.4576 49.4332 71.458 50.6697 72.2208 51.4324L77.9404 57.1484C78.3218 57.5295 78.8214 57.7201 79.321 57.7201C79.8212 57.7201 80.321 57.5291 80.7025 57.1476C81.465 56.3845 81.4646 55.148 80.7017 54.3853Z" fill="#FFCB65"/>
<path d="M107.733 48.7204C106.97 47.9583 105.733 47.9583 104.971 48.7212L99.0448 54.6501C98.2823 55.413 98.2827 56.6497 99.0456 57.4124C99.4272 57.7936 99.9266 57.9841 100.426 57.9841C100.926 57.9841 101.426 57.793 101.808 57.4116L107.734 51.4827C108.496 50.7198 108.496 49.4831 107.733 48.7204Z" fill="#FFCB65"/>
<path d="M83.5428 121.445C83.1797 121.082 82.6758 120.873 82.1621 120.873C81.6484 120.873 81.1445 121.082 80.7812 121.445C80.418 121.808 80.209 122.311 80.209 122.826C80.209 123.34 80.4178 123.844 80.7812 124.207C81.1445 124.57 81.6484 124.779 82.1621 124.779C82.6777 124.779 83.1797 124.57 83.5428 124.207C83.908 123.844 84.1152 123.34 84.1152 122.826C84.1152 122.312 83.908 121.808 83.5428 121.445Z" fill="#FFCB65"/>
</g>
<defs>
<clipPath id="clip0">
<rect width="100" height="100" fill="white" transform="translate(40 40)"/>
</clipPath>
</defs>
</svg>
