<svg width="180" height="180" viewBox="0 0 180 180" fill="none" xmlns="http://www.w3.org/2000/svg">
<rect width="180" height="180" rx="90" fill="#006E6E"/>
<g clip-path="url(#clip0)">
<path d="M139.422 109.504L134.655 104.776C133.889 104.016 132.652 104.021 131.892 104.787C131.132 105.553 131.137 106.79 131.904 107.55L136.671 112.278C137.052 112.656 137.549 112.845 138.046 112.845C138.549 112.845 139.051 112.652 139.433 112.267C140.193 111.501 140.188 110.264 139.422 109.504Z" fill="#FFCB65"/>
<path d="M129.797 99.9377C129.034 99.1748 127.798 99.1748 127.035 99.9377L127.031 99.941C126.268 100.704 126.27 101.939 127.033 102.702C127.414 103.083 127.914 103.274 128.413 103.274C128.914 103.274 129.415 103.082 129.797 102.701C130.56 101.938 130.56 100.701 129.797 99.9377Z" fill="#FFCB65"/>
<path d="M113.143 108.945L132.094 89.9947C134.964 87.1244 134.964 82.4541 132.094 79.5838C131.082 78.5717 129.845 77.9182 128.544 77.6199C128.99 76.6602 129.226 75.6069 129.226 74.5168C129.226 72.5504 128.461 70.7018 127.07 69.3115C125.98 68.2209 124.607 67.5166 123.117 67.2629C123.956 64.707 123.363 61.7799 121.334 59.7514C120.219 58.6362 118.831 57.9565 117.384 57.708C117.626 56.9719 117.754 56.1946 117.754 55.3969C117.754 53.4305 116.988 51.5819 115.598 50.1916C114.208 48.8014 112.359 48.0356 110.393 48.0356C109.144 48.0356 107.944 48.3453 106.877 48.927L106.688 48.7244C104.239 46.092 100.771 44.5824 97.176 44.5824H81.8361C80.7574 44.5824 79.8826 45.4572 79.8826 46.536V49.0977C79.8826 50.1229 80.056 51.1209 80.3877 52.0594C79.5041 51.6924 78.548 51.4996 77.5625 51.4996C75.5961 51.4996 73.7474 52.2655 72.357 53.6557C70.3273 55.6854 69.7349 58.6147 70.5758 61.1713C69.1267 61.4192 67.7375 62.0992 66.6211 63.2154C65.2308 64.6059 64.465 66.4545 64.465 68.4207C64.465 69.2168 64.5926 69.993 64.8342 70.7276C63.3459 70.982 61.9744 71.686 60.8849 72.7756C58.6433 75.0172 58.1525 78.357 59.4125 81.0795C58.0783 81.3844 56.8529 82.0563 55.8611 83.0479C52.991 85.918 52.991 90.5883 55.8611 93.4586L59.7584 97.3557L40.572 116.542C39.8092 117.305 39.8092 118.541 40.572 119.305C40.9535 119.686 41.4535 119.877 41.9533 119.877C42.4531 119.877 42.9531 119.686 43.3345 119.305L62.706 99.933C63.8027 100.559 65.0472 100.894 66.3443 100.894C68.3105 100.894 70.1592 100.128 71.5496 98.7373C73.0601 97.227 73.7746 95.2178 73.6951 93.235C73.7941 93.2391 73.8931 93.242 73.9922 93.242C75.8769 93.2418 77.7627 92.5242 79.1974 91.0895C80.5877 89.699 81.3535 87.8504 81.3535 85.8842C81.3535 85.7848 81.3502 85.686 81.3463 85.5871C81.4441 85.591 81.542 85.5942 81.64 85.5942C83.525 85.5942 85.4103 84.8766 86.8453 83.4416C88.2355 82.0512 89.0013 80.2026 89.0013 78.2363C89.0013 78.1369 88.998 78.0381 88.9941 77.9393C89.092 77.9432 89.1898 77.9463 89.2879 77.9463C91.173 77.9463 93.0582 77.2287 94.4931 75.7938C97.19 73.0969 97.3523 68.8112 94.9814 65.9223L107.949 52.9547C108.602 52.302 109.469 51.9428 110.392 51.9428C111.314 51.9428 112.182 52.302 112.834 52.9547C113.487 53.6072 113.846 54.4744 113.846 55.3973C113.846 56.3199 113.487 57.1875 112.834 57.8399L110.922 59.7518L103.985 66.6889C103.222 67.4518 103.222 68.6887 103.985 69.4518C104.367 69.833 104.867 70.024 105.366 70.024C105.866 70.024 106.366 69.8332 106.748 69.4518L113.685 62.5147C115.031 61.1678 117.223 61.1676 118.57 62.5145C119.917 63.8615 119.917 66.0529 118.57 67.4L116.658 69.3121L111.633 74.3371C110.87 75.1 110.87 76.3369 111.633 77.1C112.014 77.4813 112.514 77.6723 113.014 77.6723C113.514 77.6723 114.014 77.4815 114.395 77.1L119.42 72.075C120.073 71.4223 120.94 71.0631 121.863 71.0631C122.786 71.0631 123.653 71.4223 124.306 72.075C124.958 72.7276 125.318 73.5947 125.318 74.5176C125.318 75.4402 124.958 76.3078 124.306 76.9602L121.681 79.5846L119.281 81.9852C118.518 82.7481 118.518 83.985 119.281 84.7481C119.662 85.1293 120.162 85.3203 120.662 85.3203C121.162 85.3203 121.662 85.1295 122.043 84.7481L124.445 82.3457C125.793 81.001 127.983 81.0012 129.329 82.3475C130.676 83.6944 130.676 85.886 129.329 87.233L110.378 106.184C105.62 110.942 99.2953 113.697 92.5701 113.941C92.0758 113.959 91.6062 114.164 91.257 114.515L73.7508 132.086C72.9892 132.85 72.9914 134.087 73.7558 134.849C74.1369 135.229 74.6357 135.419 75.1346 135.419C75.6355 135.419 76.1369 135.227 76.5183 134.844L89.3947 121.92C92.6654 124.018 96.5119 125.016 100.423 124.757L110.501 134.835C110.882 135.216 111.382 135.407 111.882 135.407C112.382 135.407 112.882 135.217 113.263 134.835C114.026 134.072 114.026 132.835 113.263 132.072L102.548 121.356C102.143 120.951 101.579 120.744 101.007 120.79L100.388 120.841C97.5293 121.076 94.7035 120.449 92.2363 119.067L93.4918 117.807C100.917 117.349 107.868 114.22 113.143 108.945ZM68.7871 95.9748C68.1346 96.6276 67.267 96.9867 66.3445 96.9867C65.4217 96.9867 64.5543 96.6276 63.9019 95.9748L58.6234 90.6965C57.2765 89.3496 57.2765 87.158 58.6234 85.811C59.276 85.1582 60.1435 84.799 61.0662 84.799C61.9888 84.799 62.8564 85.1582 63.5088 85.811L68.7873 91.0893C70.134 92.4361 70.134 94.6277 68.7871 95.9748ZM76.4353 88.3266C75.0883 89.6735 72.8963 89.6735 71.5498 88.3266L66.2713 83.0481L63.6467 80.4235C62.2998 79.0766 62.2998 76.885 63.6467 75.5381C64.2992 74.8854 65.1668 74.5262 66.0892 74.5262C67.0121 74.5262 67.8795 74.8854 68.5318 75.5381L76.4347 83.441C76.4347 83.441 76.4347 83.441 76.4349 83.441C77.0877 84.0938 77.4469 84.9611 77.4469 85.8838C77.4469 86.8065 77.0877 87.674 76.4353 88.3266ZM84.0832 80.6785C82.7361 82.0252 80.5443 82.0254 79.1976 80.6785L69.3826 70.8635C68.7301 70.211 68.3709 69.3438 68.3709 68.4209C68.3709 67.4983 68.7301 66.6307 69.3828 65.9783C70.0562 65.3049 70.941 64.9682 71.8254 64.9682C72.7094 64.9682 73.5931 65.3045 74.2664 65.9768L78.7398 70.4502L84.0828 75.7932H84.083C84.7353 76.4457 85.0945 77.3129 85.0945 78.2358C85.0949 79.1586 84.7357 80.0262 84.0832 80.6785ZM91.7312 73.0305C90.3844 74.3774 88.1928 74.3774 86.8459 73.0305L77.0308 63.2154C77.0299 63.2145 77.0287 63.2135 77.0275 63.2123L75.1187 61.3035C73.7719 59.9565 73.7719 57.7651 75.1187 56.418C75.7922 55.7444 76.6769 55.4076 77.5615 55.4076C78.4461 55.4076 79.3308 55.7444 80.0041 56.418L91.7308 68.1447C92.3836 68.7973 92.7428 69.6647 92.7428 70.5873C92.7429 71.5104 92.384 72.3781 91.7312 73.0305ZM92.2449 63.1336L86.8793 57.768C87.4877 57.8979 88.1133 57.9668 88.75 57.9666C88.7642 57.9666 88.7787 57.9666 88.7931 57.9666L94.1541 57.9414C95.2328 57.9363 96.1035 57.0576 96.0984 55.9787C96.0933 54.9029 95.2197 54.0344 94.1451 54.0344C94.142 54.0344 94.1388 54.0344 94.1357 54.0344L88.7748 54.0596C88.7666 54.0596 88.7588 54.0596 88.7506 54.0596C87.4297 54.0596 86.1873 53.5469 85.2506 52.6147C84.308 51.6764 83.789 50.4276 83.789 49.0975V48.4893H97.1754C99.69 48.4893 102.115 49.5449 103.828 51.386L103.908 51.4713L92.2449 63.1336Z" fill="#FFCB65"/>
</g>
<defs>
<clipPath id="clip0">
<rect width="100" height="100" fill="white" transform="translate(40 40)"/>
</clipPath>
</defs>
</svg>
