<svg width="180" height="180" viewBox="0 0 180 180" fill="none" xmlns="http://www.w3.org/2000/svg">
<rect width="180" height="180" rx="90" fill="#006E6E"/>
<path d="M109.336 40H70.4688C59.4838 40 50.5469 48.9369 50.5469 59.9219C50.5469 70.2479 58.4441 78.7641 68.5156 79.7488V86.6797C68.5156 87.4695 68.9916 88.1818 69.7213 88.4842C70.4512 88.7865 71.2912 88.6195 71.8498 88.0609L80.0668 79.8438H99.9332L108.15 88.0607C108.524 88.4344 109.023 88.6328 109.532 88.6328C109.783 88.6328 110.037 88.584 110.279 88.484C111.009 88.1816 111.484 87.4695 111.484 86.6795V79.7281C116.029 79.2434 120.237 77.226 123.494 73.9367C127.211 70.1828 129.258 65.2055 129.258 59.9219C129.258 48.9369 120.321 40 109.336 40ZM109.511 75.9352C108.44 75.9465 107.578 76.8176 107.578 77.8881V81.9645L102.123 76.5096C101.757 76.1434 101.26 75.9375 100.742 75.9375H79.2578C78.7398 75.9375 78.243 76.1434 77.8768 76.5096L72.4219 81.9645V77.8906C72.4219 76.8119 71.5475 75.9375 70.4688 75.9375C61.6377 75.9375 54.4531 68.7529 54.4531 59.9219C54.4531 51.0908 61.6377 43.9062 70.4688 43.9062H109.336C118.167 43.9062 125.352 51.0908 125.352 59.9219C125.352 68.6584 118.245 75.842 109.511 75.9352Z" fill="#FFCB65"/>
<path d="M103.295 50.533C102.533 49.7701 101.296 49.7701 100.533 50.533L99.1227 51.9434C96.9017 49.4139 93.6478 47.8125 90.0249 47.8125C83.3478 47.8125 77.9155 53.2447 77.9155 59.9219C77.9155 66.599 83.3478 72.0312 90.0249 72.0312C96.702 72.0312 102.134 66.599 102.134 59.9219C102.134 58.3061 101.814 56.7643 101.237 55.3537L103.295 53.2953C104.058 52.5326 104.058 51.2959 103.295 50.533ZM90.0249 68.125C85.5017 68.125 81.8218 64.4451 81.8218 59.9219C81.8218 55.3986 85.5017 51.7188 90.0249 51.7188C92.5708 51.7188 94.8497 52.8848 96.3554 54.7107L91.6602 59.4059L89.6233 57.3689C88.8606 56.6062 87.6239 56.6062 86.861 57.3689C86.0983 58.1316 86.0983 59.3684 86.861 60.1312L90.279 63.5492C90.6604 63.9307 91.1602 64.1213 91.6601 64.1213C92.1599 64.1213 92.6599 63.9307 93.0411 63.5492L98.1001 58.4902C98.1827 58.9555 98.228 59.4334 98.228 59.9219C98.228 64.4451 94.5481 68.125 90.0249 68.125Z" fill="#FFCB65"/>
<path d="M67.7248 106.027C69.148 104.289 70.0037 102.068 70.0037 99.6513V96.1908C70.0037 90.6316 65.4811 86.1089 59.9219 86.1089C54.3627 86.1089 49.84 90.6316 49.84 96.1908V99.6513C49.84 102.068 50.6957 104.289 52.1189 106.027C45.2523 107.171 40 113.151 40 120.337V138.047C40 139.126 40.8744 140 41.9531 140H77.8906C78.9693 140 79.8438 139.126 79.8438 138.047V120.337C79.8438 113.151 74.5914 107.171 67.7248 106.027ZM53.7463 96.1908C53.7463 92.7855 56.5166 90.0152 59.9219 90.0152C63.3271 90.0152 66.0975 92.7855 66.0975 96.1908V99.6513C66.0975 103.057 63.3271 105.827 59.9219 105.827C56.5166 105.827 53.7463 103.057 53.7463 99.6513V96.1908ZM75.9375 136.094H43.9062V120.337C43.9062 114.49 48.6631 109.733 54.51 109.733H57.9688V114.662C57.9688 115.74 58.8432 116.615 59.9219 116.615C61.0006 116.615 61.875 115.74 61.875 114.662V109.733H65.3338C71.1807 109.733 75.9375 114.49 75.9375 120.337V136.094Z" fill="#FFCB65"/>
<path d="M127.881 106.027C129.304 104.289 130.16 102.068 130.16 99.6513V96.1908C130.16 90.6316 125.637 86.1089 120.078 86.1089C114.519 86.1089 109.996 90.6316 109.996 96.1908V99.6513C109.996 102.068 110.852 104.289 112.275 106.027C105.409 107.171 100.156 113.151 100.156 120.337V138.047C100.156 139.126 101.031 140 102.109 140H138.047C139.126 140 140 139.126 140 138.047V120.337C140 113.151 134.748 107.171 127.881 106.027ZM113.903 96.1908C113.903 92.7855 116.673 90.0152 120.078 90.0152C123.483 90.0152 126.254 92.7855 126.254 96.1908V99.6513C126.254 103.057 123.483 105.827 120.078 105.827C116.673 105.827 113.903 103.057 113.903 99.6513V96.1908ZM136.094 136.094H104.062V120.337C104.062 114.49 108.819 109.733 114.666 109.733H118.125V114.662C118.125 115.74 118.999 116.615 120.078 116.615C121.157 116.615 122.031 115.74 122.031 114.662V109.733H125.49C131.337 109.733 136.094 114.49 136.094 120.337V136.094Z" fill="#FFCB65"/>
<path d="M121.459 120.359C121.096 119.996 120.592 119.789 120.078 119.789C119.564 119.789 119.061 119.996 118.697 120.359C118.334 120.723 118.125 121.227 118.125 121.74C118.125 122.256 118.334 122.758 118.697 123.123C119.061 123.486 119.564 123.693 120.078 123.693C120.592 123.693 121.096 123.486 121.459 123.123C121.822 122.758 122.031 122.256 122.031 121.74C122.031 121.227 121.822 120.725 121.459 120.359Z" fill="#FFCB65"/>
<path d="M61.3027 120.359C60.9395 119.996 60.4355 119.789 59.9219 119.789C59.4082 119.789 58.9043 119.996 58.541 120.359C58.1777 120.723 57.9688 121.227 57.9688 121.74C57.9688 122.256 58.1777 122.758 58.541 123.123C58.9043 123.486 59.4082 123.693 59.9219 123.693C60.4355 123.693 60.9395 123.486 61.3027 123.123C61.666 122.758 61.875 122.256 61.875 121.74C61.875 121.227 61.666 120.725 61.3027 120.359Z" fill="#FFCB65"/>
</svg>
