<svg width="180" height="180" viewBox="0 0 180 180" fill="none" xmlns="http://www.w3.org/2000/svg">
<rect width="180" height="180" rx="90" fill="#006E6E"/>
<path d="M138.047 116.684C139.125 116.684 140 115.81 140 114.731V111.316C140 106.103 136.997 101.58 132.632 99.3789C134.903 97.4562 136.348 94.5875 136.348 91.3859V88.9515C136.348 83.1767 131.65 78.4785 125.875 78.4785C120.101 78.4785 115.402 83.1767 115.402 88.9515V91.3859C115.402 94.1689 116.496 96.6998 118.272 98.5773C114.839 99.3433 111.592 100.805 108.691 102.921L91.0054 115.823C90.6397 116.09 90.3046 116.39 89.9999 116.715C89.6952 116.39 89.3599 116.09 88.9944 115.823L71.3085 102.921C68.4081 100.805 65.1613 99.3433 61.7275 98.5773C63.5043 96.6998 64.5976 94.1689 64.5976 91.3859V88.9515C64.5976 83.1767 59.8994 78.4785 54.1246 78.4785C48.3498 78.4785 43.6516 83.1767 43.6516 88.9515V91.3859C43.6516 94.5875 45.0971 97.4562 47.368 99.3789C43.0027 101.58 40 106.103 40 111.316V138.042C40 139.121 40.8746 139.996 41.9531 139.996H66.2958C67.3744 139.996 68.249 139.121 68.249 138.042V120.108L81.028 127.813C83.2833 129.173 85.9983 129.212 88.2913 127.917C88.939 127.551 89.5097 127.099 89.9999 126.583C90.4901 127.099 91.0608 127.551 91.7085 127.917C92.8243 128.547 94.0401 128.861 95.254 128.861C96.5349 128.861 97.814 128.511 98.9716 127.813L111.751 120.108V138.042C111.751 139.121 112.625 139.996 113.704 139.996H138.047C139.125 139.996 140 139.121 140 138.042V130.986C140 129.907 139.125 129.033 138.047 129.033C136.968 129.033 136.094 129.907 136.094 130.986V136.089H115.657V118.065C115.657 117.964 115.647 117.865 115.632 117.768L117.755 116.488C118.679 115.931 118.976 114.731 118.419 113.807C117.862 112.883 116.661 112.585 115.738 113.143L96.9546 124.468C95.922 125.091 94.6788 125.108 93.6294 124.516C92.5798 123.923 91.953 122.849 91.953 121.643C91.953 120.594 92.4595 119.597 93.3077 118.979L110.994 106.076C114.776 103.317 119.25 101.859 123.932 101.859H126.636C131.851 101.859 136.094 106.101 136.094 111.316V114.731C136.094 115.81 136.968 116.684 138.047 116.684ZM47.5576 88.9515C47.5576 85.3306 50.5035 82.3848 54.1244 82.3848C57.7453 82.3848 60.6912 85.3306 60.6912 88.9515V91.3859C60.6912 95.0068 57.7453 97.9527 54.1244 97.9527C50.5035 97.9527 47.5576 95.0068 47.5576 91.3859V88.9515ZM86.3704 124.516C85.3204 125.108 84.0775 125.091 83.045 124.468L64.2615 113.143C63.3378 112.585 62.1373 112.883 61.5804 113.807C61.0234 114.731 61.3207 115.931 62.2445 116.488L64.3652 117.767C64.3503 117.864 64.3425 117.964 64.3425 118.065V136.089H43.9062V111.316C43.9062 106.101 48.149 101.859 53.3638 101.859H56.0683C60.7504 101.859 65.2242 103.317 69.0064 106.077L86.6923 118.979C87.5405 119.598 88.047 120.594 88.047 121.644C88.0468 122.849 87.42 123.923 86.3704 124.516ZM132.442 91.3859C132.442 95.0068 129.496 97.9527 125.875 97.9527C122.255 97.9527 119.309 95.0068 119.309 91.3859V88.9515C119.309 85.3306 122.255 82.3848 125.875 82.3848C129.496 82.3848 132.442 85.3306 132.442 88.9515V91.3859Z" fill="#FFCB65"/>
<path d="M139.428 121.238C139.064 120.875 138.561 120.668 138.047 120.668C137.533 120.668 137.029 120.875 136.666 121.238C136.303 121.603 136.094 122.105 136.094 122.619C136.094 123.135 136.303 123.637 136.666 124.002C137.029 124.365 137.533 124.574 138.047 124.574C138.561 124.574 139.064 124.365 139.428 124.002C139.791 123.637 140 123.135 140 122.619C140 122.105 139.791 121.601 139.428 121.238Z" fill="#FFCB65"/>
<path d="M89.9922 40C88.9137 40 88.0391 40.8746 88.0391 41.9531V51.9199C88.0391 52.9986 88.9137 53.873 89.9922 53.873C91.0707 53.873 91.9453 52.9984 91.9453 51.9199V41.9531C91.9453 40.8746 91.0707 40 89.9922 40Z" fill="#FFCB65"/>
<path d="M91.3728 57.5624C91.0098 57.1972 90.5059 56.9882 89.9922 56.9882C89.4785 56.9882 88.9746 57.1972 88.6113 57.5624C88.248 57.9238 88.0391 58.4277 88.0391 58.9433C88.0391 59.457 88.2478 59.9587 88.6113 60.324C88.9746 60.6874 89.4785 60.8943 89.9922 60.8943C90.5059 60.8943 91.0098 60.6872 91.3728 60.324C91.7361 59.9587 91.9453 59.457 91.9453 58.9433C91.9453 58.4275 91.7363 57.9236 91.3728 57.5624Z" fill="#FFCB65"/>
<path d="M80.6939 54.3853L74.9746 48.6693C74.2115 47.907 72.9751 47.9076 72.2123 48.6701C71.4498 49.4332 71.4501 50.6697 72.213 51.4324L77.9326 57.1484C78.314 57.5295 78.8136 57.7201 79.3132 57.7201C79.8134 57.7201 80.3132 57.5291 80.6947 57.1476C81.4572 56.3845 81.4568 55.148 80.6939 54.3853Z" fill="#FFCB65"/>
<path d="M107.725 48.7202C106.962 47.9581 105.726 47.9581 104.963 48.721L99.037 54.6499C98.2745 55.4128 98.2749 56.6495 99.0377 57.4122C99.4194 57.7934 99.9188 57.9839 100.419 57.9839C100.919 57.9839 101.419 57.7929 101.8 57.4114L107.726 51.4825C108.488 50.7196 108.488 49.4829 107.725 48.7202Z" fill="#FFCB65"/>
</svg>
