<svg width="180" height="180" viewBox="0 0 180 180" fill="none" xmlns="http://www.w3.org/2000/svg">
<rect width="180" height="180" rx="90" fill="#006E6E"/>
<path d="M51.5369 84.5176C51.1738 84.1543 50.6699 83.9453 50.1562 83.9453C49.6426 83.9453 49.1387 84.1543 48.7754 84.5176C48.4121 84.8809 48.2031 85.3848 48.2031 85.8984C48.2031 86.4121 48.4119 86.916 48.7754 87.2793C49.1389 87.6426 49.6426 87.8516 50.1562 87.8516C50.6699 87.8516 51.1738 87.6426 51.5369 87.2793C51.9004 86.916 52.1094 86.4121 52.1094 85.8984C52.1094 85.3848 51.9004 84.8809 51.5369 84.5176Z" fill="#FFCB65"/>
<path d="M73.9846 40C68.9125 40 64.7861 44.1264 64.7861 49.1982V51.6957C64.7861 56.7676 68.9125 60.8939 73.9846 60.8939C79.0566 60.8939 83.183 56.7676 83.183 51.6957V49.1982C83.183 44.1264 79.0566 40 73.9846 40ZM79.2768 51.6957C79.2768 54.6137 76.9027 56.9877 73.9846 56.9877C71.0664 56.9877 68.6924 54.6137 68.6924 51.6957V49.1982C68.6924 46.2803 71.0666 43.9063 73.9846 43.9063C76.9025 43.9063 79.2768 46.2803 79.2768 49.1982V51.6957Z" fill="#FFCB65"/>
<path d="M106.016 40C100.944 40 96.8174 44.1264 96.8174 49.1982V51.6957C96.8174 56.7676 100.944 60.8939 106.016 60.8939C111.088 60.8939 115.214 56.7676 115.214 51.6957V49.1982C115.214 44.1264 111.088 40 106.016 40ZM111.308 51.6957C111.308 54.6137 108.934 56.9877 106.016 56.9877C103.098 56.9877 100.724 54.6137 100.724 51.6957V49.1982C100.724 46.2803 103.098 43.9063 106.016 43.9063C108.934 43.9063 111.308 46.2803 111.308 49.1982V51.6957Z" fill="#FFCB65"/>
<path d="M129.523 73.7769C130.596 72.2724 131.229 70.4342 131.229 68.4496V65.9523C131.229 60.8805 127.103 56.7541 122.031 56.7541C116.959 56.7541 112.833 60.8805 112.833 65.9523V68.4496C112.833 70.4342 113.467 72.2724 114.539 73.7769C110.998 74.0414 107.905 75.9381 106.015 78.7183C104.126 75.9381 101.032 74.0416 97.491 73.7769C98.5641 72.2724 99.1978 70.4342 99.1978 68.4496V65.9523C99.1978 60.8805 95.0715 56.7541 89.9994 56.7541C84.9273 56.7541 80.801 60.8805 80.801 65.9523V68.4496C80.801 70.4342 81.435 72.2724 82.5078 73.7769C78.9666 74.0414 75.8732 75.9381 73.9836 78.7183C72.0939 75.9381 69.0006 74.0416 65.4594 73.7769C66.5324 72.2724 67.1662 70.4342 67.1662 68.4496V65.9523C67.1662 60.8805 63.0398 56.7541 57.9678 56.7541C52.8957 56.7541 48.7693 60.8805 48.7693 65.9523V68.4496C48.7693 70.4342 49.4033 72.2724 50.4762 73.7769C44.6271 74.2139 40 79.11 40 85.0697V98.7203C40 103.652 43.5346 107.773 48.2031 108.686V138.047C48.2031 139.126 49.0777 140 50.1562 140H65.7812C66.8598 140 67.7344 139.126 67.7344 138.047V108.686C70.2887 108.186 72.5023 106.727 73.9844 104.699C75.4664 106.727 77.6801 108.186 80.2344 108.686V138.047C80.2344 139.126 81.109 140 82.1875 140H97.8125C98.891 140 99.7656 139.126 99.7656 138.047V108.686C102.32 108.186 104.534 106.727 106.016 104.699C107.498 106.727 109.711 108.186 112.266 108.686V138.047C112.266 139.126 113.14 140 114.219 140H129.844C130.922 140 131.797 139.126 131.797 138.047V128.086C131.797 127.007 130.922 126.133 129.844 126.133C128.765 126.133 127.891 127.007 127.891 128.086V136.094H123.984V112.461C123.984 111.382 123.11 110.508 122.031 110.508C120.953 110.508 120.078 111.382 120.078 112.461V136.094H116.172V104.59H127.891V112.461C127.891 113.54 128.765 114.414 129.844 114.414C130.922 114.414 131.797 113.54 131.797 112.461V108.686C136.465 107.773 140 103.652 140 98.7203V85.0697C140 79.11 135.373 74.2139 129.523 73.7769ZM52.6766 65.9523C52.6766 63.0344 55.0506 60.6603 57.9688 60.6603C60.8869 60.6603 63.2609 63.0344 63.2609 65.9523V68.4496C63.2609 71.3676 60.8869 73.7416 57.9688 73.7416C55.0506 73.7416 52.6766 71.3676 52.6766 68.4496V65.9523ZM63.8281 136.094H59.9219V112.461C59.9219 111.382 59.0473 110.508 57.9688 110.508C56.8902 110.508 56.0156 111.382 56.0156 112.461V136.094H52.1094V104.59H63.8281V136.094ZM72.0312 98.7203C72.0312 101.485 70.2268 103.834 67.7344 104.656V85.8984C67.7344 84.8197 66.8598 83.9453 65.7812 83.9453C64.7027 83.9453 63.8281 84.8197 63.8281 85.8984V100.684H52.1094V92.9297C52.1094 91.851 51.2348 90.9765 50.1562 90.9765C49.0777 90.9765 48.2031 91.851 48.2031 92.9297V104.656C45.7107 103.834 43.9062 101.485 43.9062 98.7203V85.0697C43.9062 80.9773 47.2357 77.6478 51.3281 77.6478H64.6094C68.7018 77.6478 72.0312 80.9773 72.0312 85.0697V98.7203ZM84.7078 65.9523C84.7078 63.0344 87.0818 60.6603 90 60.6603C92.9182 60.6603 95.2922 63.0344 95.2922 65.9523V68.4496C95.2922 71.3676 92.9182 73.7416 90 73.7416C87.0818 73.7416 84.7078 71.3676 84.7078 68.4496V65.9523ZM95.8594 136.094H91.9531V112.461C91.9531 111.382 91.0785 110.508 90 110.508C88.9215 110.508 88.0469 111.382 88.0469 112.461V136.094H84.1406V104.59H95.8594V136.094ZM104.062 98.7203C104.062 101.485 102.258 103.834 99.7656 104.656V85.8984C99.7656 84.8197 98.891 83.9453 97.8125 83.9453C96.734 83.9453 95.8594 84.8197 95.8594 85.8984V100.684H84.1406V85.8984C84.1406 84.8197 83.266 83.9453 82.1875 83.9453C81.109 83.9453 80.2344 84.8197 80.2344 85.8984V104.656C77.742 103.834 75.9375 101.485 75.9375 98.7203V85.0697C75.9375 80.9773 79.267 77.6478 83.3594 77.6478H96.6406C100.733 77.6478 104.062 80.9773 104.062 85.0697V98.7203ZM116.739 65.9523C116.739 63.0344 119.113 60.6603 122.031 60.6603C124.949 60.6603 127.323 63.0344 127.323 65.9523V68.4496C127.323 71.3676 124.949 73.7416 122.031 73.7416C119.113 73.7416 116.739 71.3676 116.739 68.4496V65.9523ZM136.094 98.7203C136.094 101.485 134.289 103.834 131.797 104.656V102.637V85.8984C131.797 84.8197 130.922 83.9453 129.844 83.9453C128.765 83.9453 127.891 84.8197 127.891 85.8984V100.684H116.172V85.8984C116.172 84.8197 115.297 83.9453 114.219 83.9453C113.14 83.9453 112.266 84.8197 112.266 85.8984V104.656C109.773 103.834 107.969 101.485 107.969 98.7203V85.0697C107.969 80.9773 111.298 77.6478 115.391 77.6478H128.672C132.764 77.6478 136.094 80.9773 136.094 85.0697V98.7203Z" fill="#FFCB65"/>
<path d="M131.224 118.961C130.861 118.598 130.359 118.389 129.844 118.389C129.33 118.389 128.826 118.598 128.463 118.961C128.1 119.324 127.891 119.828 127.891 120.342C127.891 120.857 128.099 121.359 128.463 121.723C128.826 122.086 129.33 122.295 129.844 122.295C130.357 122.295 130.861 122.086 131.224 121.723C131.588 121.359 131.797 120.855 131.797 120.342C131.797 119.828 131.588 119.324 131.224 118.961Z" fill="#FFCB65"/>
</svg>
